# xmcd
#
# Track frame offsets:
#	150
#	11756
#	22381
#	42707
#	54993
#	71967
#	88771
#	101848
#	117677
#	130791
#	144669
#	165039
#	181831
#
# Disc length: 2612 seconds
#
# Revision: 1
# Processed by: cddbd v1.5.1PL0 Copyright (c) Steve Scherf et al.
# Submitted via: CDex 1.50Beta5
#
DISCID=be0a320d
DTITLE=中川イサト - Rainbow Chaser
DYEAR=1900
DGENRE=
TTITLE0=Little Sharon
TTITLE1=Hachijo Kariyasu
TTITLE2=Night Song
TTITLE3=All Fruit
TTITLE4=Miotsukushi
TTITLE5=Ralegh’s Present
TTITLE6=Biwako Cruising Song
TTITLE7=Vella Lavella Island
TTITLE8=Suirou
TTITLE9=Pea Soup
TTITLE10=Tenkyu
TTITLE11=Rainbow Chaser
TTITLE12=Waltz For Gaby
EXTD=
EXTT0=
EXTT1=
EXTT2=
EXTT3=
EXTT4=
EXTT5=
EXTT6=
EXTT7=
EXTT8=
EXTT9=
EXTT10=
EXTT11=
EXTT12=
PLAYORDER=
